<svg xmlns="http://www.w3.org/2000/svg" version="1.1" viewBox="-5.0 -10.0 110.0 135.0">
 <path d="m49.996 0c-12.969 0-23.527 10.586-23.527 23.555 0 12.965 10.562 23.527 23.527 23.527 12.969 0 23.555-10.562 23.555-23.527 0-12.965-10.586-23.555-23.555-23.555zm0 6.25c9.5898 0 17.305 7.7148 17.305 17.305 0 9.5898-7.7148 17.277-17.305 17.277s-17.297-7.6914-17.297-17.277c0-9.5898 7.707-17.305 17.297-17.305zm0 43.719c-23.359 0-42.262 18.902-42.262 42.262v4.6562c0.003906 0.82812 0.33594 1.6211 0.92578 2.207 0.58984 0.58203 1.3828 0.91016 2.2148 0.90625 1.7188-0.003906 3.1094-1.3945 3.1172-3.1133v-4.6562c0-20.004 16-36.012 36.004-36.012s36.012 16.008 36.012 36.012v4.6562c0.003907 0.82812 0.33594 1.6211 0.92188 2.207 0.58984 0.58203 1.3867 0.91016 2.2148 0.90625 1.7188-0.003906 3.1133-1.3945 3.1211-3.1133v-4.6562c0-23.359-18.906-42.262-42.266-42.262z"/>
</svg>